<svg xmlns="http://www.w3.org/2000/svg" xmlns:xlink="http://www.w3.org/1999/xlink" version="1.1" id="pieces" x="0px" y="0px" viewBox="0 0 25.3 25.3" style="enable-background:new 0 0 25.3 25.3;" xml:space="preserve">
				<style type="text/css">
					.st1{fill:#FFFFFF;}
					.st0{stroke:#444; fill: #444; transition: all 150ms ease; }
				</style>
				<g>
					<g>
						<g>
							<path class="st0" d="M12.7,1c6.4,0,11.7,5.2,11.7,11.7s-5.2,11.7-11.7,11.7S1,19.1,1,12.7S6.2,1,12.7,1 M12.7,0"/>
						</g>
					</g>
					<g>
						<g>
							<path class="st1" d="M7.3,10.9c0-1.3,0-1.5-0.6-1.6L6.3,9.3C6.2,9.2,6.2,9,6.3,8.9c0.8-0.1,1.7-0.1,3-0.1c0.8,0,1.6,0.1,2.3,0.4     c0.7,0.3,1.1,1,1.1,1.9c0,1.3-1,2-1.7,2.3c-0.1,0.1,0,0.2,0.1,0.3c1.1,1.8,1.8,2.8,2.7,3.6c0.2,0.2,0.6,0.4,0.9,0.4     c0.1,0,0.1,0.1,0,0.2c-0.1,0-0.3,0.1-0.6,0.1c-1.2,0-1.9-0.3-2.8-1.7c-0.4-0.5-0.9-1.4-1.3-2.1c-0.2-0.3-0.4-0.4-1-0.4     c-0.6,0-0.6,0-0.6,0.3v1.7c0,1.4,0,1.6,0.8,1.7l0.3,0c0.1,0.1,0.1,0.3,0,0.3c-0.6,0-1.1,0-1.6,0c-0.6,0-1.1,0-1.7,0     c-0.1,0-0.1-0.2,0-0.3l0.3,0c0.8-0.1,0.8-0.3,0.8-1.7V10.9z M8.5,12.9c0,0.2,0,0.4,0,0.4c0,0,0.2,0.1,0.9,0.1     c0.5,0,1-0.1,1.4-0.4c0.4-0.3,0.7-0.8,0.7-1.7c0-1.1-0.7-2.1-2.2-2.1c-0.8,0-0.9,0.1-0.9,0.4V12.9z"/>
						</g>
						<g>
							<path class="st1" d="M16.3,9h2v1.2c0,0.6-0.2,1.1-0.6,1.5c-0.4,0.4-0.9,0.6-1.4,0.6c-0.4,0-0.8-0.1-1.1-0.3     c-0.3-0.2-0.5-0.4-0.7-0.7c0-0.1-0.1-0.2-0.1-0.2c0-0.1-0.1-0.2-0.1-0.3c0-0.2-0.1-0.7-0.1-1.3c0-0.7,0-1.1,0.1-1.4     c0-0.2,0.1-0.4,0.2-0.6c0.1-0.3,0.4-0.5,0.7-0.7c0.3-0.2,0.7-0.3,1.1-0.3c0.5,0,1,0.2,1.3,0.5c0.3,0.3,0.6,0.7,0.6,1.2h-0.9     c-0.1-0.2-0.2-0.4-0.4-0.6c-0.2-0.2-0.4-0.2-0.7-0.2c-0.2,0-0.4,0-0.5,0.1c-0.1,0.1-0.3,0.2-0.4,0.3c-0.1,0.1-0.2,0.3-0.2,0.5     c0,0.2-0.1,0.6-0.1,1.2c0,0.6,0,1,0.1,1.2c0,0.2,0.1,0.4,0.2,0.5c0.1,0.1,0.2,0.2,0.4,0.3c0.1,0.1,0.3,0.1,0.5,0.1     c0.3,0,0.6-0.1,0.8-0.4c0.2-0.2,0.3-0.5,0.3-0.9V9.8h-1.1V9z"/>
						</g>
					</g>
				</g>
				</svg>
