<?xml version="1.0" encoding="utf-8"?>
<!-- Svg Vector Icons : http://www.onlinewebfonts.com/icon -->
<!DOCTYPE svg PUBLIC "-//W3C//DTD SVG 1.1//EN" "http://www.w3.org/Graphics/SVG/1.1/DTD/svg11.dtd">
<svg version="1.1" xmlns="http://www.w3.org/2000/svg" xmlns:xlink="http://www.w3.org/1999/xlink" x="0px" y="0px" viewBox="0 0 1000 1000" enable-background="new 0 0 1000 1000" xml:space="preserve">
<metadata> Svg Vector Icons : http://www.onlinewebfonts.com/icon </metadata>
<g><path d="M500,10c270.6,0,490,219.4,490,490c0,270.6-219.4,490-490,490C229.4,990,10,770.6,10,500C10,229.4,229.4,10,500,10L500,10z M499.5,481.6c84.1,0,152.3-68.2,152.3-152.3c0-84.1-68.2-152.3-152.3-152.3c-84.1,0-152.4,68.2-152.4,152.3C347.1,413.4,415.3,481.6,499.5,481.6L499.5,481.6z M278.6,781.7c10.8-40.2,25-77.3,42.4-106.3c1.6-2.7,3.2-5.1,4.9-7.6v113.9H673V666.2c2,3,4,6,5.9,9.2c17.5,29,31.4,66.1,42.3,106.3H812c-12.8-53.8-30.6-106.2-57.7-151.4c-26.1-43.7-62.3-81.6-111.1-101.4c-1.7-0.8-3.4-1.5-5.2-2.2c-0.6-0.2-1.2-0.5-1.7-0.7c-0.9-0.3-1.8-0.4-2.7-0.7c-1.3-0.3-2.5-0.7-3.7-0.9c-2.6-0.5-5.1-0.7-7.7-0.8c-0.6,0-1.2-0.2-1.8-0.2H378.6c-0.9,0-1.8,0.2-2.7,0.3c-1.7,0.1-3.3,0.2-5,0.5c-6.7,1-12.9,3.3-18.6,6.6c-46.6,20.3-81.5,57.1-106.8,99.5c-26.9,45.2-44.9,97.7-57.6,151.4L278.6,781.7L278.6,781.7z" fill="#444" /></g>
</svg>
