<svg enable-background="new 0 0 512 512" height="512px" id="Layer_1" version="1.1" viewBox="0 0 512 512" width="512px" xml:space="preserve" xmlns="http://www.w3.org/2000/svg" xmlns:xlink="http://www.w3.org/1999/xlink"><g><circle fill = "#444" cx="255.999" cy="256" r="246.455"/></g><g id="Logo"><g id="yellow"><path clip-rule="evenodd" d="M251.208,178.51c21.112,0,40.958,9.326,55.53,23.936v0.055    c0-7.012,4.721-12.297,11.277-12.297l1.658-0.016c10.25,0,12.352,9.703,12.352,12.777l0.055,109.057    c-0.727,7.137,7.363,10.816,11.852,6.246c17.514-17.994,38.461-92.518-10.885-135.693c-45.99-40.254-107.702-33.619-140.52-11    c-34.887,24.062-57.211,77.309-35.525,127.324c23.637,54.566,91.281,70.828,131.485,54.607    c20.361-8.217,29.766,19.303,8.619,28.295c-31.947,13.617-120.864,12.246-162.401-59.711    c-28.064-48.586-26.57-134.076,47.859-178.371c56.941-33.875,132.008-24.494,177.276,22.781    c47.316,49.422,44.561,141.965-1.594,177.961c-20.912,16.34-51.971,0.426-51.773-23.395l-0.215-7.789    c-14.561,14.453-33.938,22.883-55.049,22.883c-41.709,0-78.41-36.707-78.41-78.398C172.797,215.633,209.499,178.51,251.208,178.51    L251.208,178.51L251.208,178.51L251.208,178.51z M303.702,254.738c-1.572-30.539-24.24-48.906-51.618-48.906h-1.031    c-31.592,0-49.113,24.844-49.113,53.062c0,31.6,21.199,51.562,48.992,51.562c30.989,0,51.368-22.703,52.84-49.553L303.702,254.738    z" fill="#FFFFFF" fill-rule="evenodd"/></g></g></svg>
